# xmcd CD database file
#
# Track frame offsets:
#	150
#	32572
#	55881
#	79377
#	100050
#	120510
#	143608
#	166235
#	191857
#	212544
#	231108
#	251332
#	282162
#
# Disc length: 4242 seconds
#
# Revision: 0
# Processed by: cddbd v1.5.2PL0 Copyright (c) Steve Scherf et al.
# Submitted via: CDex 1.70beta2
#
DISCID=ab10900d
DTITLE=Kitaro - N.A. 83 Flower Power
DYEAR=2000
DGENRE=New Age
TTITLE0=Kitaro - Gaia
TTITLE1=In And Young - Mu
TTITLE2=Shantel - Nova sola
TTITLE3=Pino Scagliarini - Voyage
TTITLE4=James Asher - Temple gates
TTITLE5=Viviane and Caimi - Fina memoria
TTITLE6=Paul Taylor - Raw Sugar
TTITLE7=James Perry - Darkest Hour
TTITLE8=Buckthead - Whitewash
TTITLE9=Anam - Kjetil's song
TTITLE10=Soul Patrol - Musica
TTITLE11=Bryan Savage - Soul temptation
TTITLE12=dati
EXTD=YEAR: 2000
EXTT0=
EXTT1=
EXTT2=
EXTT3=
EXTT4=
EXTT5=
EXTT6=
EXTT7=
EXTT8=
EXTT9=
EXTT10=
EXTT11=
EXTT12=
PLAYORDER=
